<?xml version="1.0" encoding="utf-8"?>
<!-- Generator: Adobe Illustrator 21.0.0, SVG Export Plug-In . SVG Version: 6.00 Build 0)  -->
<svg version="1.1" id="Layer_1" xmlns="http://www.w3.org/2000/svg" xmlns:xlink="http://www.w3.org/1999/xlink" x="0px" y="0px"
	 viewBox="0 0 350 71" style="enable-background:new 0 0 350 71;" xml:space="preserve">
<style type="text/css">
	.st0{fill:#FFFFFF;}
</style>
<title>Page 1</title>
<desc>Created with Sketch.</desc>
<g>
	<g id="XMLID_494_">
		<path id="XMLID_506_" class="st0" d="M59.6,32.4c-0.1,0.4-0.1,0.8-0.1,1.2c0,2.9,2.6,5.3,5.8,5.3c3.2,0,5.8-2.4,5.8-5.3
			c0-0.4-0.1-0.8-0.1-1.2H59.6z"/>
		<path id="XMLID_505_" class="st0" d="M68.6,0H46.7v3.6h21.8v20.1H58.2c-0.9,0-1.4-0.2-1.5-0.8l0-0.3l-1.8-9.1l0,0l0,0l0-0.2
			c-0.1-0.4,0.1-0.9,1.2-0.9c0.1,0,0.2,0,0.3,0h9.9V6.2h-9.9c-5.5,0-8.3,3.1-8.3,7v0.2l1.9,9.6c0.1,3,2.6,5.6,5.9,6.5
			c0.8,0.2,1.6,0.3,2.4,0.3h2.9h8.1h4.2h1.9V0h-4.4H68.6z"/>
		<path id="XMLID_504_" class="st0" d="M110.3,0H88.5v3.6h21.8v20.1H100c-0.9,0-1.4-0.3-1.5-0.8l0-0.2l-1.8-9.2
			c-0.1-0.4-0.1-1,1.3-1l0,0c0.1,0,0.1,0,0.2,0h9.9V6.2h-9.9c-5.5,0-9,2.9-8.3,7v0.2l1.9,9.6c0.1,3,2.6,5.6,5.9,6.5
			c0.8,0.2,1.6,0.3,2.4,0.3h2.9h8.1h4.2h1.9V0h-3H110.3z"/>
		<polygon id="XMLID_503_" class="st0" points="119.1,1.2 119.1,3.1 119.1,3.6 120.9,3.6 120.9,29.8 127.6,29.8 127.6,3.6 
			127.6,1.2 127.6,0 119.1,0 		"/>
		<polygon id="XMLID_502_" class="st0" points="77.6,1.2 77.6,3.1 77.6,3.6 79.4,3.6 79.4,29.8 86.2,29.8 86.2,3.6 86.2,1.2 86.2,0 
			77.6,0 		"/>
		<polygon id="XMLID_501_" class="st0" points="35.9,1.2 35.9,3.1 35.9,3.6 37.7,3.6 37.7,29.8 44.5,29.8 44.5,3.6 44.5,1.2 44.5,0 
			35.9,0 		"/>
		<path id="XMLID_500_" class="st0" d="M26.9,0H1.1v1.6v2v1.3v0.1c0,1.7,1,5,4.4,6.8c1.4,0.7,3,0.9,4.3,1c0.7,0.1,1.8,0.2,2.2,0.4
			c0,0.1,0.1,0.3,0.1,0.6l0.2,2.1V16c0,1.7,0,3.7-0.4,4.1c-0.1,0.1-1,0.8-6.1,0.8v6.2c5,0,8.9-0.5,11.2-2.9c1.5-1.6,1.9-3.5,2-5.6
			c0,0,0,0,0,0c0-0.6,0.4-1,0.4-1c0.9-0.7,3.3-1,5.3-0.9v-6.2c-1.8,0-4.1,0.1-6.3,0.7C17.9,9.4,17.2,9,17.2,9
			c-0.5-0.6-1.1-1-1.6-1.3c-1.6-0.9-3.4-1.1-4.9-1.2C10,6.4,9,6.3,8.7,6.2C8,5.8,7.8,4.9,7.8,4.7V3.6h19v2.5v2v6.2v3.4v12.2h6.8
			V17.6V5.3V0h-3.4H26.9z"/>
		<path id="XMLID_499_" class="st0" d="M151.2,2.8c-1.1-1.2-2.6-1.9-4.2-2l-1,6.4h0l-0.8,4.8h-5.7l-0.8-4.8h5l1-6.4H138
			c-1.7,0-3.3,0.7-4.5,2c-1.1,1.3-1.6,3-1.3,4.6l1,6.1c0.4,2.8,2.9,4.8,5.8,4.8h6.8c2.9,0,5.3-2,5.8-4.8l1-6.1
			C152.8,5.7,152.3,4,151.2,2.8z"/>
		<path id="XMLID_498_" class="st0" d="M151.9,24.8c-0.4,0-3.6-0.3-5.6-1.9c-4-3.1-8.5-3-9-3.1l-4.8,0v5.8h4.6
			c0.4,0,3.5,0.1,5.6,1.9c3.6,2.9,8.5,3,9,3.1h1v-5.8H151.9z"/>
		<path id="XMLID_497_" class="st0" d="M155.5,13v0.2l1.6,9.9c0.2,3.7,3.8,6.8,8.3,6.8h1.5v-6.2h-1.5c-0.9,0-1.4-0.3-1.5-0.8l0-0.3
			l-1.4-9.2l0,0l0,0l0-0.1c0-0.3,0-1,1-1.1c0,0,0.1,0,0.1,0c0,0,0.1,0,0.1,0c0.1,0,0.2,0,0.3,0h3.6v6.6h5.7v-6.6h3.2V5.9h-12.5
			C159.1,5.7,155,8.8,155.5,13z"/>
		<polygon id="XMLID_496_" class="st0" points="156,3.6 178.3,3.6 178.3,29.8 185.1,29.8 185.1,3.6 185.1,1.7 185.1,0 156,0 		"/>
		<polygon id="XMLID_495_" class="st0" points="187,0 187,1.2 187,3.1 187,3.6 188.6,3.6 188.6,29.8 195.3,29.8 195.3,3.6 
			195.3,1.2 195.3,0 		"/>
	</g>
	<g id="XMLID_479_">
		<path id="XMLID_493_" class="st0" d="M118.7,60.3c0-1.2,0-2.4,0-3.6c0-0.8-0.3-1.5-0.7-2.2c-1.7-2.8-5.6-2.5-7.3-1.1
			c-1,0.8-1.2,1.9-1.4,2.9c-0.2,1.1-0.1,2.3,0.5,3.4c1.1,2.1,3.9,3.1,6,2.2c0.3-0.1,0.6-0.3,1-0.5c0.4-0.2,0.7-0.1,0.7,0.4
			c0,0.5,0,0.9,0,1.4c0,0.4-1,1.2-1.5,1.2c-1.3,0-2.6,0.2-3.8-0.1c-0.9-0.2-1.9-0.7-2.6-1.3c-1-0.8-1.8-1.8-2.3-3
			c-0.6-1.5-0.6-3-0.3-4.5c0.3-1.3,1-2.5,1.9-3.5c1.1-1.1,2.5-1.6,3.8-2c1.6-0.5,3.3-0.1,4.7,0.7c1.4,0.8,2.5,2,3.1,3.6
			c0.4,1.1,0.6,2.2,0.6,3.4c0,2.2,0,4.3,0,6.5c0.1,2.7-2.2,5.8-5,6.4c-2.2,0.5-4.3,0.3-6.4-0.3c-0.5-0.1-0.5-0.4-0.4-0.8
			c0.1-0.3,0.1-0.6,0.1-1c0.1-0.5,0.5-0.6,0.9-0.4c1.4,0.5,2.8,0.6,4.3,0.5c2-0.1,3.9-1.6,3.9-3.6c0-1.6,0-3.2,0-4.9
			C118.6,60.3,118.6,60.3,118.7,60.3z"/>
		<path id="XMLID_492_" class="st0" d="M60,50.4c0,1.9,0,3.9,0,5.8c0,1,0.1,2,0.3,3c0.2,1.3,2.3,3.3,3.8,3c0,0,0,0,0.1,0
			c1.5,0.2,2.9-0.3,3.9-1.3c1-1.1,1.5-2.5,1.5-4c0-1.7-0.6-3-2.1-3.9c-1.7-0.9-3.5-1-5.3-0.2c-0.3,0.1-0.7,0.2-1,0.3
			c0-0.4-0.1-0.8-0.1-1.1c0-0.3,0-0.6,0.1-0.8c0.1-0.2,0.2-0.5,0.4-0.5c0.6-0.2,1.1-0.5,1.7-0.6c2.3-0.3,4.5-0.1,6.3,1.7
			c1,1,1.8,2.2,2.2,3.6c0.4,1.4,0.2,2.8-0.2,4.2c-0.3,1.1-0.8,2.1-1.5,2.8c-0.7,0.7-1.6,1.2-2.5,1.7c-1.5,0.8-3.2,0.4-4.9,0.4
			c-0.7,0-1.4-0.5-2.1-0.9c-1.3-0.8-2.2-1.9-2.7-3.3c-0.2-0.4-0.3-0.8-0.3-1.2c0-4.9,0-9.8,0-14.7c0-0.6,0.3-0.8,0.8-0.9
			c1.2-0.2,1.6,0.2,1.6,1.4C60,46.7,60,48.6,60,50.4z"/>
		<path id="XMLID_491_" class="st0" d="M173.4,57.8c1.1-0.7,2.2-1.3,3.3-1.9c1.1-0.6,2.2-1.2,3.2-1.8c0.3-0.2,0.4-0.5,0-0.8
			c-0.5-0.3-0.9-0.7-1.5-0.8c-1.5-0.3-3.1-0.5-4.4,0.6c-1.3,1.1-2.3,3.1-1.7,4.9c0.4,1.1,0.9,2.2,1.8,3c1.2,1.2,2.8,1.5,4.4,1.1
			c1.7-0.4,3.1-1.5,3.3-3.5c0-0.4,0.2-0.5,0.6-0.5c0.3,0,0.6,0,0.9,0c1,0.1,1.4,0.6,1,1.5c-0.7,1.6-1.5,3-3.1,3.9
			c-0.9,0.5-1.7,1-2.8,0.9c-0.7-0.1-1.4-0.1-2.2,0c-1.7,0.2-3-0.6-4-1.7c-0.8-0.9-1.5-1.9-1.9-3c-0.5-1.3-0.5-2.6-0.2-3.9
			c0.3-1.5,0.9-3,2.1-4.1c1-0.9,2.3-1.3,3.5-1.6c2.1-0.5,3.9,0.2,5.7,1.3c0.5,0.3,1,0.8,1.4,1.3c0.3,0.3,0.6,0.8,0.9,1.1
			c0.3,0.4,0.3,0.6-0.2,0.9c-2.7,1.6-5.4,3.1-8.2,4.7c-0.4,0.2-0.8,0.4-1.1-0.3C174.1,58.7,173.8,58.3,173.4,57.8z"/>
		<path id="XMLID_490_" class="st0" d="M24.7,61.1c0,0.7,0.1,1.3,0,2c0,0.3-0.3,0.7-0.5,0.7c-0.9,0.3-1.8,0.5-2.7,0.7
			c-0.4,0.1-0.9,0-1.4,0c-1.3,0.1-2.3-0.5-3.2-1.3c-1-0.8-1.6-1.8-2.1-2.9c-0.8-1.6-0.7-3.3-0.3-4.9c0.3-1.2,0.9-2.2,1.7-3.1
			c1.1-1.3,2.6-1.8,4.2-2.2c2.4-0.5,4.4,0.2,6.3,1.8c1.2,1,1.6,2.4,2,3.9c0.1,0.5-0.1,1.1-0.1,1.7c0,2.1,0.1,4.2,0.1,6.3
			c0,0.6-0.2,0.8-0.7,0.7c-0.4,0-0.7,0-1.1,0c-0.7,0-0.9-0.3-0.8-1c0.1-0.5,0-1,0-1.5c0-0.7,0-1.5,0-2.2c0-1,0.1-2.1,0-3.1
			c-0.1-0.7-0.3-1.5-0.6-2.2c-0.5-1.3-1.7-1.9-3-2.1c-0.8-0.1-1.7-0.1-2.6,0.1c-1.6,0.3-2.5,1.4-3,2.9c-0.6,2.2-0.3,4.2,1.4,5.8
			c1.2,1.2,3.7,1.6,5.2,0.5c0.3-0.2,0.6-0.5,0.9-0.8C24.5,61,24.6,61,24.7,61.1z"/>
		<path id="XMLID_489_" class="st0" d="M142.6,60c0-1.2,0-2.5,0-3.7c-0.1-2-1.7-3.9-4-4c-0.7,0-1.4-0.1-2,0.1
			c-2,0.4-2.9,1.8-3.3,3.7c-0.4,1.9,0.2,3.6,1.4,5c0.6,0.7,1.6,1,2.5,1.2c1.3,0.2,2.5,0,3.5-1.1c0.2-0.3,0.5-0.2,0.6,0.2
			c0,0.5,0.1,1.1,0,1.6c0,0.3-0.3,0.7-0.5,0.8c-0.8,0.3-1.6,0.6-2.5,0.8c-0.4,0.1-0.9,0-1.3,0c-2.4,0-4.7-1.6-5.6-3.9
			c-0.4-1.1-0.8-2.3-0.7-3.5c0.2-1.9,0.8-3.6,2.2-5c1.5-1.6,3.4-2.1,5.4-2.1c1.6,0,3,0.5,4.3,1.4c1.2,0.9,2,2.2,2.3,3.7
			c0.1,0.4,0.2,0.7,0.2,1.1c0,2.5,0,5.1,0,7.6c0,0.6-0.2,0.8-0.8,0.8c-1.8,0-1.8,0-1.8-1.7C142.6,61.9,142.6,61,142.6,60z"/>
		<path id="XMLID_488_" class="st0" d="M54.2,59.6c0,1.6,0,3,0,4.3c0,0.5-0.2,0.6-0.6,0.6c-1.9,0-1.9,0.1-1.9-1.8c0-2.1,0-4.2,0-6.3
			c0-1.3-0.6-2.3-1.5-3.1c-1.4-1.3-4.4-1.3-5.7-0.5c-1,0.6-1.7,1.7-2,3c-0.3,1.1-0.1,2.2,0.2,3.2c0.2,0.8,0.6,1.6,1.3,2.1
			c1.8,1.4,4.1,1.8,5.9-0.1c0.4-0.4,0.5-0.1,0.5,0.2c0.5,1.4-0.2,2.4-1.5,2.9c-1.3,0.5-2.7,0.4-4,0.3c-0.8-0.1-1.6-0.6-2.3-1.1
			c-2-1.7-3.1-3.8-2.8-6.5c0.3-2.8,1.7-5,4.2-6.2c2.7-1.2,5.4-0.9,7.7,0.8c1.1,0.8,1.8,1.9,2.2,3.3C54.4,56.5,54,58.2,54.2,59.6z"/>
		<path id="XMLID_487_" class="st0" d="M84.6,60.7c0,0.3,0,0.6,0,0.8c0,0.3,0,0.6,0,0.8c0.1,0.9-0.3,1.5-1.1,1.7
			c-1.2,0.4-2.5,0.4-3.7,0.4c-0.9,0.1-1.6-0.3-2.2-0.7c-1.2-0.9-2.4-2-3-3.5c-0.5-1.3-0.5-2.5-0.4-3.8c0.1-1.3,0.6-2.4,1.3-3.5
			c0.9-1.2,2-2.2,3.5-2.6c0.8-0.2,1.6-0.4,2.4-0.5c1.2-0.2,2.3,0.3,3.4,0.8c1.4,0.6,2.3,1.7,3.1,2.9c0.3,0.4,0.4,1,0.4,1.5
			c0.1,1,0,1.9,0,2.9c0,1.4,0.1,2.8,0.1,4.2c0,0.6,0,1.2,0,1.8c0,0.2-0.2,0.4-0.4,0.4c-0.6,0-1.2,0.1-1.7,0c-0.2,0-0.5-0.4-0.5-0.6
			c0-2.7,0.1-5.4,0.1-8.1c0-1.6-2.1-3.4-3.7-3.5c-0.7,0-1.5-0.1-2.2,0.1c-1.8,0.3-2.8,1.6-3.2,3.2c-0.5,2-0.1,3.8,1.3,5.4
			c1.4,1.5,4.7,1.7,6,0.1C84.2,61.1,84.4,61,84.6,60.7z"/>
		<path id="XMLID_486_" class="st0" d="M7,50.7c1.2,0,2.4,0,3.6,0c0.5,0,0.6,0.2,0.6,0.6c0,1.6,0.2,1.7-1.5,1.6c-1.6,0-3.3,0-4.9,0
			c-0.5,0-1,0-1.5,0.1c-0.5,0.2-0.8,0.6-0.7,1.1c0.1,0.5,0.3,0.9,0.9,1.1c1.3,0.4,2.6,1,3.9,1.4c0.8,0.3,1.5,0.5,2.3,0.8
			c2.5,1,2.9,4,1.2,5.8c-0.7,0.7-1.5,1.1-2.4,1.3c-0.3,0.1-0.7,0-1.1,0c-2.2,0-4.4,0-6.6,0c-0.5,0-0.8-0.1-0.8-0.7
			c0.1-1.8-0.2-1.5,1.5-1.5c2,0,4.1,0,6.1,0c0.9,0,1.3-0.3,1.5-1.2c0.1-0.6-0.1-1.2-0.8-1.4c-1.3-0.5-2.6-0.9-3.9-1.4
			c-1.1-0.4-2.1-0.8-3.1-1.3c-0.9-0.5-1.4-2.2-1.1-3.4c0.4-1.7,2-2.8,3.7-2.8C4.8,50.7,5.9,50.7,7,50.7z"/>
		<path id="XMLID_485_" class="st0" d="M154.9,59.8c0-1.3-0.1-2.6,0-3.8c0.1-1.8,0.8-3.4,2.1-4.5c1-0.8,2.2-1.4,3.5-1.5
			c1.1-0.1,2.1,0.4,3.1,0.8c0.9,0.4,1.7,1,2.3,1.7c0.7,0.8,1.2,1.7,1.2,2.8c0,2.7,0,5.3-0.1,8c0,1.2,0,1.2-1.2,1.2c0,0-0.1,0-0.1,0
			c-1.2,0-1.1,0-1.1-1.1c0-2.5,0.1-5.1,0-7.6c0-1.3-1.3-3-2.6-3.1c-1-0.1-2.1-0.3-3,0.4c-1,0.7-1.5,1.7-1.5,2.9c0,2.6,0,5.2,0,7.8
			c0,0.6-0.2,0.9-0.8,0.8c-0.4,0-0.8,0-1.3,0c-0.5,0-0.6-0.2-0.6-0.7C154.9,62.5,154.9,61.2,154.9,59.8z"/>
		<path id="XMLID_484_" class="st0" d="M103.7,59.1c0,1.6,0,3.3,0,4.9c0,0.2-0.2,0.4-0.4,0.4c-0.6,0.1-1.2,0-1.8,0
			c-0.5,0-0.4-0.4-0.4-0.7c0-2.7,0.2-5.3,0.1-8c-0.1-1.4-1.2-3.3-3.3-3.2c-1.2,0-2.2,0.2-3,1.1c-0.7,0.8-0.7,1.7-0.7,2.6
			c-0.1,2.5,0,5,0,7.5c0,0.6-0.2,0.8-0.8,0.8c-0.5,0-0.9,0-1.4,0c-0.4,0-0.8-0.2-0.6-0.7c0.1-0.2,0-0.4,0-0.6c0-2,0-4.1,0-6.1
			c0-1.1,0.1-2.2,0.5-3.2c0.6-1.5,1.5-2.8,3.2-3.4c0.6-0.2,1.2-0.4,1.9-0.6c1.1-0.2,2,0.3,2.9,0.7c1.5,0.6,2.6,1.6,3.4,3.1
			c0.2,0.4,0.3,0.8,0.3,1.2c0,1.4,0,2.8,0,4.2C103.6,59.1,103.6,59.1,103.7,59.1z"/>
		<path id="XMLID_483_" class="st0" d="M187.3,53.8c0-2.1,0-4.3,0-6.4c0-0.6,0.2-0.9,0.9-0.9c1.8,0,1.8,0,1.8,1.8
			c0,0.5-0.1,1.1-0.1,1.6c0,0.4,0,0.6,0.5,0.6c1.3,0,2.5,0,3.8,0c0.8,0,1.2,0.2,1.2,1c0,1,0.3,1.4-1.4,1.3c-1.1,0-2.1,0-3.2,0
			c-0.7,0-0.8,0.2-0.7,0.8c0,0.2,0.1,0.3,0.1,0.5c0,1.9,0.1,3.8,0,5.7c0,0.8-0.1,1.5,0.5,2c0.3,0.2,0.6,0.4,1,0.4
			c0.9,0.1,1.9,0,2.8,0c0.8,0,0.9,0.2,0.8,0.9c0,0.1,0,0.2,0,0.3c0,1,0,1-1,1c-1,0-1.9-0.1-2.9,0c-2,0.2-3.7-1.7-3.8-3.3
			c-0.1-2.5,0-4.9,0-7.4C187.4,53.8,187.4,53.8,187.3,53.8z"/>
		<path id="XMLID_482_" class="st0" d="M127.3,54c0,3.2,0,6.5,0,9.7c0,0.6-0.1,0.8-0.7,0.8c-0.4,0-0.9,0-1.3,0
			c-0.4,0-0.7-0.2-0.5-0.7c0.1-0.2,0.1-0.5,0.1-0.8c0-5.6,0-11.3,0-16.9c0-0.5-0.1-1.1-0.1-1.6c-0.1-0.6,0.1-0.9,0.7-1
			c0.1,0,0.2,0,0.3,0c1.7,0,1.7-0.2,1.7,1.6C127.3,48.1,127.3,51.1,127.3,54z"/>
		<path id="XMLID_481_" class="st0" d="M33.7,50.1c0.1,1.7,0.1,1.7,1.5,1c0.7-0.3,1.4-0.7,2.1-1c0.3-0.1,0.6-0.1,0.9,0
			c0.1,0.1,0.2,0.5,0.2,0.7c0,0.2-0.1,0.4,0,0.6c0.3,0.8-0.2,0.8-0.7,0.9c-0.6,0.1-1.3,0.2-1.8,0.5C34.6,53.5,34,54.6,34,56
			c0,2.6,0,5.2,0,7.8c0,0.6-0.2,0.7-0.7,0.7c-1.9,0-1.9,0-1.9-1.9c0-3.9,0-7.7,0-11.6c0-0.9,0.1-1,1-1C32.8,50,33.3,50,33.7,50.1z"
			/>
		<path id="XMLID_480_" class="st0" d="M149.8,64.5c-0.2,0-0.5,0.1-0.6,0c-0.4-0.2-0.9-0.5-1.1-0.8c-0.1-0.3,0-0.8,0.2-1.2
			c0.2-0.4,0.6-0.7,1-1c0.6-0.5,0.9-0.5,1.5,0c1.1,0.9,0.9,2.4,0.1,2.9C150.6,64.5,150.2,64.5,149.8,64.5
			C149.9,64.6,149.9,64.5,149.8,64.5z"/>
	</g>
</g>
</svg>
